<svg width="24" height="24" viewBox="0 0 24 24" fill="none" xmlns="http://www.w3.org/2000/svg">
<path d="M3.5999 1.19995C2.93716 1.19995 2.3999 1.73721 2.3999 2.39995C2.3999 3.06269 2.93716 3.59995 3.5999 3.59995H5.06297L5.42964 5.06664C5.43349 5.0836 5.4377 5.10042 5.44226 5.1171L7.07093 11.6318L5.99985 12.7029C4.48793 14.2148 5.55873 16.7999 7.6969 16.7999H17.9998C18.6626 16.7999 19.1998 16.2627 19.1998 15.5999C19.1998 14.9372 18.6626 14.3999 17.9998 14.3999L7.6969 14.3999L8.8969 13.1999H16.7999C17.2544 13.1999 17.6699 12.9431 17.8732 12.5366L21.4732 5.33661C21.6592 4.96462 21.6393 4.52285 21.4207 4.16907C21.202 3.81529 20.8158 3.59995 20.3999 3.59995H7.53683L7.16407 2.10891C7.03052 1.57471 6.55054 1.19995 5.9999 1.19995H3.5999Z" fill="#687782"/>
<path d="M19.1999 19.7999C19.1999 20.7941 18.394 21.5999 17.3999 21.5999C16.4058 21.5999 15.5999 20.7941 15.5999 19.7999C15.5999 18.8058 16.4058 17.9999 17.3999 17.9999C18.394 17.9999 19.1999 18.8058 19.1999 19.7999Z" fill="#687782"/>
<path d="M7.7999 21.5999C8.79402 21.5999 9.5999 20.7941 9.5999 19.7999C9.5999 18.8058 8.79402 17.9999 7.7999 17.9999C6.80579 17.9999 5.9999 18.8058 5.9999 19.7999C5.9999 20.7941 6.80579 21.5999 7.7999 21.5999Z" fill="#687782"/>
</svg>
